<svg version="1.1" id="Layer_1" xmlns="http://www.w3.org/2000/svg" xmlns:xlink="http://www.w3.org/1999/xlink" x="0px" y="0px"
	 width="100%" viewBox="0 0 1024 1024" enable-background="new 0 0 1024 1024" xml:space="preserve">
<path fill="#2e8555" opacity="1.000000" stroke="none" 
	d="
M475.000000,737.093384 
	C423.169037,737.094299 371.836029,737.381531 320.507599,737.020020 
	C261.332977,736.603333 188.326614,696.514526 171.956802,616.159668 
	C161.888062,566.734985 174.450027,522.905884 206.905212,484.622223 
	C223.692749,464.819946 243.673843,449.417999 268.631073,441.170380 
	C280.197266,437.348114 292.098572,434.970978 304.214569,434.050629 
	C308.250397,433.744080 309.617401,432.028656 310.352875,428.524475 
	C314.492249,408.802826 321.818024,390.272156 331.983185,372.915894 
	C352.076752,338.607697 379.904236,312.626740 415.954773,295.593689 
	C442.536072,283.034637 470.470703,275.500092 499.893768,276.857941 
	C579.075317,280.512085 637.595886,316.555023 671.745667,389.293396 
	C677.270874,401.062012 680.414856,413.730957 683.107544,426.419678 
	C683.965271,430.461639 685.390625,431.802307 689.613220,431.882507 
	C724.776367,432.550293 758.289917,439.855164 786.712952,461.582733 
	C816.732178,484.530579 835.738892,515.052124 843.308838,552.345642 
	C845.800903,564.622864 847.051697,577.035889 846.303101,589.548218 
	C844.106873,626.255981 832.396729,658.909180 806.641724,686.186462 
	C781.879333,712.412354 752.215698,729.060669 716.863342,735.739380 
	C712.286255,736.604126 707.662109,737.108521 702.989929,737.107910 
	C627.159973,737.098816 551.329956,737.096680 475.000000,737.093384 
M641.527100,401.894043 
	C612.712463,340.633728 563.727844,310.666107 496.756378,309.545624 
	C474.236359,309.168854 452.696075,314.527588 432.140289,324.245392 
	C396.588959,341.052368 369.901245,366.573914 353.004700,402.172821 
	C346.192322,416.525604 342.178253,431.830505 337.687988,446.988007 
	C333.852234,459.936005 327.173920,464.641785 313.731720,465.361694 
	C300.537811,466.068329 287.630310,468.612030 275.426331,473.722748 
	C218.689529,497.482666 183.184509,565.533020 210.919739,632.304932 
	C221.100845,656.815735 239.071930,675.139465 261.749939,688.354614 
	C278.221222,697.952881 296.019135,704.848389 315.570557,704.858948 
	C441.866302,704.927185 568.162109,704.866394 694.457947,704.912842 
	C732.745544,704.926941 762.717285,687.592773 786.649048,659.352722 
	C810.168518,631.599243 817.610779,598.969910 811.790100,563.155762 
	C806.393982,529.954102 789.374207,504.061188 762.252563,484.741119 
	C737.588501,467.171753 709.035217,462.593933 679.736755,462.697723 
	C666.241272,462.745514 657.641724,457.282410 654.294617,443.563263 
	C650.911194,429.695312 647.743408,415.707916 641.527100,401.894043 
z"/>
<path fill="#2e8555" opacity="1.000000" stroke="none" 
	d="
M291.999512,548.668457 
	C297.331635,548.655457 302.176239,548.420837 306.993103,548.687378 
	C312.759918,549.006470 316.904999,546.440613 320.277405,542.153137 
	C322.129944,539.797913 324.128845,537.510803 325.647888,534.947693 
	C336.861206,516.026794 361.100952,519.075928 372.139862,535.527039 
	C379.154877,545.981384 382.412445,558.230164 387.545532,569.588379 
	C389.631714,574.204651 391.356293,579.014465 394.645782,583.426392 
	C397.884766,580.215027 398.555939,576.544128 399.654175,573.153748 
	C407.151703,550.008667 410.658600,525.958252 415.684357,502.248810 
	C420.020996,481.790344 423.513214,461.127502 429.764832,441.114227 
	C431.200226,436.519043 432.922485,431.988373 434.856537,427.578796 
	C440.802277,414.022614 451.974304,406.914215 466.059265,406.026947 
	C478.537933,405.240845 488.406189,411.949371 495.109863,422.455444 
	C502.166107,433.514130 503.785065,446.412109 506.317627,458.920837 
	C517.249878,512.916687 527.411560,567.069275 539.318298,620.866455 
	C539.670532,622.457947 540.216370,624.006714 540.882324,626.299744 
	C544.094299,621.685669 544.570129,616.869812 545.573914,612.356567 
	C552.856873,579.609924 559.629028,546.745605 568.681335,514.416199 
	C570.614319,507.512634 572.889954,500.755737 576.066284,494.298615 
	C582.220764,481.787140 592.901001,475.648651 606.125305,475.299896 
	C619.276062,474.953125 629.202087,481.736145 635.453308,493.534821 
	C639.069763,500.360626 640.866150,507.828461 643.309326,515.071960 
	C645.913696,522.793213 648.397217,530.563171 651.283386,538.179321 
	C654.472656,546.595337 656.478394,547.758057 665.303833,547.752991 
	C685.633057,547.741272 705.962341,547.749817 726.291565,547.742798 
	C732.856262,547.740540 737.971680,550.282959 740.881226,556.351135 
	C745.570312,566.131042 739.351868,577.105652 728.512207,577.232117 
	C703.187866,577.527405 677.852661,577.584534 652.531616,577.159912 
	C640.994141,576.966492 633.176208,569.966003 627.685120,560.261963 
	C621.735291,549.747314 618.410583,538.198608 614.717468,526.801636 
	C612.923462,521.265259 611.243958,515.690857 609.377319,510.179504 
	C608.813049,508.513702 608.515198,506.558838 606.567932,505.559357 
	C603.807251,506.163208 603.432068,508.754486 602.513977,510.748962 
	C596.540283,523.726257 594.704041,537.853638 591.395447,551.562744 
	C584.576355,579.817261 577.935974,608.115051 571.251038,636.401855 
	C568.149902,649.523926 560.815186,658.624268 547.118713,661.345581 
	C531.876892,664.373840 517.572021,655.943115 512.655273,641.132874 
	C507.251099,624.854126 504.538971,607.918945 500.835419,591.230286 
	C491.807251,550.548462 484.502258,509.523560 476.559448,468.625275 
	C475.008881,460.641357 473.379486,452.636017 470.664734,444.927826 
	C469.741974,442.307770 469.139648,439.453094 466.349548,437.586884 
	C462.673737,440.438385 461.542145,444.705170 460.281097,448.709503 
	C454.930511,465.699554 451.832520,483.215149 448.294220,500.639557 
	C442.345306,529.934814 436.446716,559.273682 426.365173,587.518555 
	C424.306549,593.286255 421.445465,598.833923 418.401367,604.167480 
	C414.111877,611.683105 407.386566,614.974426 398.617279,615.516052 
	C382.385651,616.518616 372.682678,608.330750 366.441650,594.453064 
	C361.592499,583.670410 356.739380,572.889404 351.819092,562.139160 
	C350.940063,560.218689 350.364380,558.027161 348.087494,556.629211 
	C344.430054,559.508728 342.280304,563.735291 339.334747,567.230042 
	C333.435760,574.228943 326.300842,577.554077 317.097198,577.416077 
	C300.104462,577.161377 283.105103,577.364136 266.108551,577.343018 
	C256.398376,577.330933 249.709045,571.722534 249.696518,563.662415 
	C249.682571,554.684753 256.156036,548.713806 266.004852,548.677917 
	C274.503021,548.646973 283.001373,548.669678 291.999512,548.668457 
z"/>
</svg>